<?xml version="1.0" encoding="UTF-8" standalone="no"?>
<!-- Created with Inkscape (http://www.inkscape.org/) -->

<svg
   width="200"
   height="200"
   viewBox="0 0 52.916665 52.916666"
   version="1.1"
   id="svg1"
   sodipodi:docname="rps.svg"
   xml:space="preserve"
   inkscape:version="1.3 (0e150ed6c4, 2023-07-21)"
   inkscape:export-filename="..\..\..\github_project\github.io\_site\assets\rps_rock.svg"
   inkscape:export-xdpi="96"
   inkscape:export-ydpi="96"
   xmlns:inkscape="http://www.inkscape.org/namespaces/inkscape"
   xmlns:sodipodi="http://sodipodi.sourceforge.net/DTD/sodipodi-0.dtd"
   xmlns="http://www.w3.org/2000/svg"
   xmlns:svg="http://www.w3.org/2000/svg"><sodipodi:namedview
     id="namedview1"
     pagecolor="#ffffff"
     bordercolor="#000000"
     borderopacity="0.25"
     inkscape:showpageshadow="2"
     inkscape:pageopacity="0.0"
     inkscape:pagecheckerboard="0"
     inkscape:deskcolor="#d1d1d1"
     inkscape:document-units="px"
     inkscape:zoom="1.9525"
     inkscape:cx="107.8105"
     inkscape:cy="63.252241"
     inkscape:window-width="1920"
     inkscape:window-height="991"
     inkscape:window-x="-9"
     inkscape:window-y="-9"
     inkscape:window-maximized="1"
     inkscape:current-layer="layer1" /><defs
     id="defs1" /><g
     inkscape:label="图层 1"
     inkscape:groupmode="layer"
     id="layer1"><circle
       style="fill:#e6e6e6;fill-opacity:1;stroke:#333333;stroke-width:2.64584;stroke-dasharray:none;stroke-opacity:1"
       id="path17"
       cx="26.458332"
       cy="26.458332"
       r="25.135414" /><path
       d="m 20.959614,6.2994818 c -2.20132,0.061889 -2.292713,2.9648222 -1.7534,4.5264332 0.940629,2.766692 2.207153,5.414944 3.105108,8.195878 -1.838941,-2.491228 -3.51891,-5.278172 -6.240823,-6.932214 -1.410856,-0.978296 -3.385209,-1.478687 -4.972937,-0.680954 -1.8293454,1.262779 -0.976943,3.756842 0.598259,4.831547 1.944598,2.031065 3.944161,4.097617 5.364584,6.534843 -1.402167,-0.57413 -2.898644,-2.037113 -4.342845,-2.935729 -1.45693,-1.113288 -3.4574374,-1.88096 -5.2587854,-1.253624 -2.116482,0.900622 -1.846397,4.066324 -0.0911,5.198965 2.7508634,1.706829 5.6369774,3.334286 7.8030274,5.802641 2.397043,2.569465 5.163819,5.254603 8.750739,5.896653 0.723091,0.03007 1.493398,-0.03974 1.74367,0.796237 1.838936,2.70086 3.501522,5.543048 5.577529,8.065424 2.607157,2.53084 7.400314,1.750915 9.070546,-1.45882 1.160323,-1.957182 1.110459,-4.576134 -0.322279,-6.384759 -1.836344,-2.9001 -3.738845,-5.757757 -5.606281,-8.637891 0.819076,-2.067086 0.566686,-4.370552 1.296093,-6.448459 1.065154,-1.750419 3.012489,-2.980305 3.471981,-5.09869 0.623219,-2.259224 -2.089984,-3.301462 -3.904439,-3.049792 -2.747124,0.549078 -3.853609,3.505828 -5.234348,5.597294 -1.599721,1.373622 -1.749701,-1.965618 -2.258246,-2.966926 C 26.583809,12.659589 25.493713,9.0698815 22.703911,6.8394744 22.203426,6.4670064 21.576022,6.2842806 20.959614,6.2994818 Z m 0.242338,0.7454601 c 2.30709,0.619187 3.339993,3.1089001 4.324343,5.0538731 1.020735,2.219681 1.666123,4.583597 2.371388,6.912073 1.091105,2.285614 3.297701,0.352018 3.716214,-1.302372 1.007713,-1.560361 2.134305,-3.865096 4.338786,-3.670171 2.426186,-0.362643 3.126823,2.390919 1.570616,3.872369 -1.16438,1.566358 -3.055613,2.847894 -3.007061,5.025101 -0.162348,2.161934 -0.410869,4.506282 -2.102998,6.072119 -0.223411,1.858105 1.330653,-0.958804 1.72954,-0.02898 2.091615,2.935836 4.153041,5.923761 5.87265,9.095255 1.000653,2.616799 -0.523879,5.962309 -3.305527,6.686506 -2.573737,0.926472 -5.400737,-0.706388 -6.52259,-3.066521 -1.357662,-2.130255 -2.77791,-4.220043 -4.125173,-6.356973 1.05522,-0.736261 2.466863,-1.503578 2.655652,-2.856904 -1.624149,0.583641 -3.060786,2.910039 -5.203126,2.094651 -3.386307,-1.012634 -5.974807,-3.556679 -8.318358,-6.081876 -2.190558,-2.322738 -5.071668,-3.762441 -7.6230934,-5.613154 -1.808427,-1.374312 -0.451286,-4.454168 1.828826,-3.71642 3.1196004,0.737939 5.2089084,3.477436 8.0248154,4.824112 2.108209,-0.290094 -0.614663,-2.601423 -1.055093,-3.615545 -1.520794,-2.292825 -3.717284,-4.015485 -5.417391,-6.146442 -0.762738,-1.931935 1.626068,-3.178755 3.167836,-2.246491 3.732704,1.601585 6.153733,5.153348 8.013041,8.611559 1.823571,1.369698 1.086306,-2.067259 0.554782,-2.935677 -0.971224,-2.849053 -2.573782,-5.525627 -3.013385,-8.5305204 -0.04518,-0.9037095 0.370685,-2.2659225 1.525306,-2.0795766 z"
       id="path14"
       style="fill:#000000;stroke:none;stroke-width:1" /></g></svg>
