<?xml version="1.0" encoding="UTF-8" standalone="no"?>
<!-- Created with Inkscape (http://www.inkscape.org/) -->

<svg
   width="200"
   height="200"
   viewBox="0 0 52.916665 52.916666"
   version="1.1"
   id="svg1"
   sodipodi:docname="rps.svg"
   xml:space="preserve"
   inkscape:version="1.3 (0e150ed6c4, 2023-07-21)"
   inkscape:export-filename="..\..\..\github_project\github.io\_site\assets\rps_paper.svg"
   inkscape:export-xdpi="96"
   inkscape:export-ydpi="96"
   xmlns:inkscape="http://www.inkscape.org/namespaces/inkscape"
   xmlns:sodipodi="http://sodipodi.sourceforge.net/DTD/sodipodi-0.dtd"
   xmlns="http://www.w3.org/2000/svg"
   xmlns:svg="http://www.w3.org/2000/svg"><sodipodi:namedview
     id="namedview1"
     pagecolor="#ffffff"
     bordercolor="#000000"
     borderopacity="0.25"
     inkscape:showpageshadow="2"
     inkscape:pageopacity="0.0"
     inkscape:pagecheckerboard="0"
     inkscape:deskcolor="#d1d1d1"
     inkscape:document-units="px"
     inkscape:zoom="1.9525"
     inkscape:cx="107.8105"
     inkscape:cy="63.252241"
     inkscape:window-width="1920"
     inkscape:window-height="991"
     inkscape:window-x="-9"
     inkscape:window-y="-9"
     inkscape:window-maximized="1"
     inkscape:current-layer="layer1" /><defs
     id="defs1" /><g
     inkscape:label="图层 1"
     inkscape:groupmode="layer"
     id="layer1"><circle
       style="fill:#e6e6e6;fill-opacity:1;stroke:#333333;stroke-width:2.64584;stroke-dasharray:none;stroke-opacity:1"
       id="path17"
       cx="26.458332"
       cy="26.458332"
       r="25.135414" /><path
       d="m 28.588495,6.7064409 c -2.014963,-0.011034 -3.038148,2.2975485 -2.81924,4.0573451 -0.102488,3.058529 0.544657,6.090792 0.435272,9.142098 -0.560218,1.068092 -1.323115,-1.510603 -2.026011,-1.888356 -2.200844,-2.622489 -4.327169,-5.633265 -7.576944,-7.017759 -1.473002,-0.724683 -3.347215,0.289889 -3.47607,1.939766 -0.357903,1.872379 1.516941,3.044854 2.536932,4.326976 1.260586,1.424686 2.741246,2.738495 3.637552,4.428817 -1.657983,-0.3864 -3.576616,0.523174 -3.969645,2.402368 -0.71307,3.082586 1.264325,6.024963 3.292854,8.154097 1.638801,1.753483 3.768959,3.191374 6.237972,3.282726 1.244125,0.990917 1.914394,2.562871 2.877908,3.819389 1.279039,1.814954 2.41209,3.761644 3.908947,5.405648 2.086238,1.905693 5.502479,1.938046 7.628499,0.07227 2.18145,-1.792059 2.95018,-5.301303 1.1983,-7.646206 -1.45445,-2.517232 -3.20958,-4.849754 -4.70091,-7.338917 1.50416,-1.296821 3.14182,-2.740036 3.47609,-4.820512 0.0619,-1.934204 -0.8561,-4.188958 -2.70717,-5.019738 -1.496065,-0.619452 -3.481132,0.741986 -4.511311,0.432878 C 31.711177,16.437485 32.06143,12.305107 30.887465,8.4211948 30.473543,7.5336813 29.592137,6.7721113 28.588495,6.7064369 Z m -0.171062,0.8108667 c 2.067783,0.060948 2.09352,2.5977654 2.331865,4.1251294 0.360757,3.188313 0.497735,6.399049 0.472217,9.606778 -1.238491,0.912141 -2.788126,2.174065 -2.441835,3.889143 0.339489,1.787698 2.370205,2.442307 3.897162,1.656572 0.933404,-0.445436 2.445031,-1.30928 2.514303,-2.246061 -1.658971,0.518815 -3.502931,2.821028 -5.248584,1.309194 -1.413949,-1.504176 0.424502,-3.255382 1.765054,-3.973687 1.441731,-0.779187 3.25122,-1.776596 4.892066,-1.032347 1.94873,1.283897 2.58401,4.287052 1.0842,6.156918 -1.14415,1.731043 -3.122493,2.536224 -4.687962,3.787881 0.481862,0.497295 2.410552,-1.176605 2.811622,0.605461 1.74507,2.414459 3.47372,4.863029 4.80651,7.535108 -0.0421,1.630235 0.022,3.434186 -1.27446,4.653696 -1.8168,2.195793 -5.570245,2.420735 -7.475083,0.234213 -1.980556,-2.52873 -3.644348,-5.294541 -5.416735,-7.969522 0.123161,-0.649364 2.793195,-1.028949 2.199469,-2.190279 -1.380166,0.858458 -3.020912,1.35429 -4.644664,0.963479 -2.866679,-0.513429 -4.978469,-2.827487 -6.611724,-5.084103 -1.239232,-1.840647 -2.284744,-4.569107 -0.641511,-6.497757 1.266259,-1.487938 3.275543,-0.137392 4.139742,1.090912 0.811146,1.246244 2.824745,2.987928 1.357582,4.40065 -1.446455,1.374844 -3.133271,-0.238321 -3.796646,-1.586409 -0.09306,-0.848959 -1.228711,-2.362142 -1.004419,-0.587342 0.435379,1.914945 2.37991,4.086921 4.521826,3.268741 1.812701,-0.668277 1.882895,-2.928303 0.69158,-4.230758 C 20.663675,22.33646 18.732752,19.190662 16.121551,16.59334 15.154714,15.32378 12.866,13.847004 14.284773,12.093108 c 1.477495,-1.186736 3.431776,0.184663 4.61426,1.19794 2.666135,2.320199 4.654586,5.292839 6.834306,8.029359 1.808032,0.105555 1.064467,-2.669548 1.145683,-3.837303 -0.01913,-2.639684 -0.628855,-5.286137 -0.293779,-7.9181539 0.218401,-0.8954225 0.750203,-2.055329 1.83219,-2.0476425 z"
       id="path15"
       style="fill:#000000;stroke-width:1" /></g></svg>
