<?xml version="1.0" encoding="UTF-8" standalone="no"?>
<!-- Created with Inkscape (http://www.inkscape.org/) -->

<svg
   width="200"
   height="200"
   viewBox="0 0 52.916665 52.916666"
   version="1.1"
   id="svg1"
   sodipodi:docname="rps.svg"
   xml:space="preserve"
   inkscape:version="1.3 (0e150ed6c4, 2023-07-21)"
   xmlns:inkscape="http://www.inkscape.org/namespaces/inkscape"
   xmlns:sodipodi="http://sodipodi.sourceforge.net/DTD/sodipodi-0.dtd"
   xmlns="http://www.w3.org/2000/svg"
   xmlns:svg="http://www.w3.org/2000/svg"><sodipodi:namedview
     id="namedview1"
     pagecolor="#ffffff"
     bordercolor="#000000"
     borderopacity="0.25"
     inkscape:showpageshadow="2"
     inkscape:pageopacity="0.0"
     inkscape:pagecheckerboard="0"
     inkscape:deskcolor="#d1d1d1"
     inkscape:document-units="px"
     inkscape:zoom="1.9525"
     inkscape:cx="107.8105"
     inkscape:cy="63.252241"
     inkscape:window-width="1920"
     inkscape:window-height="991"
     inkscape:window-x="-9"
     inkscape:window-y="-9"
     inkscape:window-maximized="1"
     inkscape:current-layer="layer1" /><defs
     id="defs1" /><g
     inkscape:label="图层 1"
     inkscape:groupmode="layer"
     id="layer1"><circle
       style="fill:#e6e6e6;fill-opacity:1;stroke:#333333;stroke-width:2.64584;stroke-dasharray:none;stroke-opacity:1"
       id="path17"
       cx="26.458332"
       cy="26.458332"
       r="25.135414" /><path
       d="m 23.831449,15.279995 c -1.502416,-0.08211 -2.511441,1.353493 -2.752083,2.694224 -1.077551,0.019 -2.329394,0.139712 -2.914286,1.195186 -0.34558,1.83821 -2.41038,1.114941 -3.362645,2.40625 -1.173143,1.048668 -1.207722,2.657731 -1.108268,4.105573 0.201195,1.685691 1.166408,3.191221 2.113058,4.563839 1.780201,2.12985 3.85279,4.126281 6.352012,5.382905 1.01834,0.317464 2.105497,0.131745 3.157102,0.170154 1.886615,2.789842 3.647327,5.674225 5.714983,8.33413 1.095466,1.207545 2.737349,1.836455 4.361725,1.647842 3.433848,0.18466 6.213127,-3.360304 5.70119,-6.657633 -0.289517,-2.093659 -1.89575,-3.646824 -2.911429,-5.414215 -1.255526,-1.952513 -2.604047,-3.862109 -3.798187,-5.844138 1.048116,-1.655281 2.283878,-3.633932 1.760112,-5.698931 -0.371511,-1.812563 -2.220577,-3.191462 -4.071104,-2.785627 -1.024474,0.415013 -1.973136,0.584698 -2.452311,-0.629366 -1.38271,-1.843341 -3.405987,-3.396238 -5.789869,-3.470193 z m 0.386569,0.788226 c 2.336711,0.402658 4.416732,2.09175 5.439599,4.214496 -0.950106,0.74345 -1.821902,1.589063 -2.524,2.573476 -0.755856,-1.552967 -1.950775,-2.858628 -3.474529,-3.6912 -0.957019,-0.458154 -2.527732,-1.049813 -1.320562,-2.293415 0.387283,-0.642765 1.163115,-0.900758 1.879492,-0.803357 z m -3.796905,2.762986 c 2.32717,0.339102 4.493388,1.86375 5.671041,3.889979 1.127724,1.256895 -0.345872,3.312087 -1.858283,2.81263 -1.742002,-0.330735 -1.920918,-2.565544 -3.416015,-3.375616 -0.88739,-0.88148 -3.522219,-1.58983 -1.611572,-2.986085 0.323285,-0.30327 0.789527,-0.369219 1.214829,-0.340908 z m 12.091724,1.236005 c 1.954119,-0.226157 3.384357,1.870566 2.982259,3.66535 -0.40729,2.878185 -2.855025,4.706235 -4.541857,6.845732 -0.269817,1.214491 1.819989,-0.961511 2.251132,-1.383443 1.177054,-1.152265 1.77556,1.502242 2.603041,2.207438 1.450262,2.227083 3.118093,4.343763 4.255585,6.754031 0.500627,1.810365 0.235888,4.008253 -1.222082,5.32575 -2.116905,2.355174 -6.426444,1.916467 -7.991445,-0.85144 -1.63111,-2.400214 -3.282632,-4.799594 -4.751166,-7.301156 0.519239,-0.448937 1.973006,-1.236969 1.601658,-1.951271 -1.38753,0.451022 -2.495652,1.786904 -4.075777,1.660503 -2.136718,-0.220369 -3.77633,-1.840913 -5.292797,-3.222131 -2.013978,-1.965163 -4.026643,-4.436086 -3.954012,-7.403293 0.05047,-1.830112 1.95652,-3.768253 3.837034,-2.923875 2.26249,0.959425 4.378421,3.034768 4.330585,5.649622 0.20569,0.575284 -0.205674,0.917968 -0.597906,1.267856 -0.952995,1.218664 -2.782086,1.089095 -3.830218,0.06621 -1.118507,-0.858735 -0.933133,-2.645472 -1.972033,-3.460976 -0.310433,1.150268 0.208433,2.504955 0.878661,3.478785 1.134572,1.657264 3.678644,2.251226 5.258591,0.860663 1.170627,-0.623324 0.881337,-2.311289 1.367765,-3.062339 1.173305,0.838287 2.794695,-1.12437 3.250179,0.589098 0.910967,0.938147 2.480269,1.276919 3.481636,0.267888 1.166798,-0.937756 1.870599,-2.435975 2.030172,-3.895011 -1.176891,0.526086 -1.27946,2.673977 -2.605296,3.384342 -1.104796,0.844597 -3.029186,-0.06835 -2.630739,-1.557841 0.339949,-2.193941 2.194013,-3.915554 4.170524,-4.748841 0.37487,-0.138187 0.767151,-0.233962 1.166506,-0.261642 z"
       id="path16"
       style="fill:#000000;stroke-width:1.05833" /></g></svg>
