<?xml version="1.0" encoding="UTF-8" standalone="no"?>
<!-- Created with Inkscape (http://www.inkscape.org/) -->

<svg
   width="200"
   height="200"
   viewBox="0 0 52.916665 52.916666"
   version="1.1"
   id="svg1"
   xml:space="preserve"
   inkscape:version="1.3 (0e150ed6c4, 2023-07-21)"
   sodipodi:docname="绘图.svg"
   inkscape:export-filename="..\..\..\github_project\github.io\assets\logo.svg"
   inkscape:export-xdpi="96"
   inkscape:export-ydpi="96"
   xmlns:inkscape="http://www.inkscape.org/namespaces/inkscape"
   xmlns:sodipodi="http://sodipodi.sourceforge.net/DTD/sodipodi-0.dtd"
   xmlns="http://www.w3.org/2000/svg"
   xmlns:svg="http://www.w3.org/2000/svg"><sodipodi:namedview
     id="namedview1"
     pagecolor="#ffffff"
     bordercolor="#000000"
     borderopacity="0.25"
     inkscape:showpageshadow="2"
     inkscape:pageopacity="0.0"
     inkscape:pagecheckerboard="0"
     inkscape:deskcolor="#d1d1d1"
     inkscape:document-units="px"
     inkscape:zoom="1.4142136"
     inkscape:cx="46.669046"
     inkscape:cy="98.641393"
     inkscape:window-width="1920"
     inkscape:window-height="991"
     inkscape:window-x="-9"
     inkscape:window-y="1341"
     inkscape:window-maximized="1"
     inkscape:current-layer="layer2" /><defs
     id="defs1"><filter
       inkscape:collect="always"
       style="color-interpolation-filters:sRGB"
       id="filter18"
       x="-0.011191677"
       y="-0.013435695"
       width="1.0223834"
       height="1.0268714"><feGaussianBlur
         inkscape:collect="always"
         stdDeviation="0.1761511"
         id="feGaussianBlur18" /></filter><filter
       inkscape:collect="always"
       style="color-interpolation-filters:sRGB"
       id="filter20"
       x="-0.45873864"
       y="-0.84500072"
       width="1.9174773"
       height="2.6900014"><feGaussianBlur
         inkscape:collect="always"
         stdDeviation="0.9887134"
         id="feGaussianBlur20" /></filter></defs><g
     inkscape:groupmode="layer"
     id="layer2"
     inkscape:label="ref" /><g
     inkscape:label="图层 1"
     inkscape:groupmode="layer"
     id="layer1"><rect
       style="opacity:1;fill:#660000;fill-opacity:1;stroke:none;stroke-width:0.555445;stroke-dasharray:none;stroke-opacity:1"
       id="rect68"
       width="52.916668"
       height="52.916668"
       x="2.7755576e-17"
       y="0"
       sodipodi:insensitive="true" /><path
       id="path17"
       style="opacity:1;fill:#ffffff;fill-opacity:1;stroke:none;stroke-width:0.2;stroke-dasharray:none;stroke-opacity:1"
       d="M 27.013365,5.2761636 C 22.081431,10.074015 16.183785,13.880335 9.3731042,15.403194 9.478475,29.959963 15.63395,40.577822 27.013365,47.662206 38.39278,40.577822 44.549294,29.959963 44.654665,15.403194 37.843977,13.880335 31.945299,10.074015 27.013365,5.2761636 Z m 5.17e-4,3.3300292 c 4.156565,4.0435612 9.127358,7.2514352 14.867309,8.5348792 -0.0888,12.26824 -5.2769,21.216868 -14.867309,27.187487 C 17.423473,38.35794 12.235381,29.409312 12.146573,17.141072 17.886523,15.857628 22.857318,12.649754 27.013882,8.6061928 Z" /><g
       id="g27"
       inkscape:label="black body"
       transform="translate(0.55555549)"><path
         style="opacity:1;fill:#380000;fill-opacity:1"
         d="m 12.705679,19.039979 c -0.184432,-0.215474 -0.38748,-0.414824 -0.608441,-0.592755 -0.132193,-0.112195 -0.283872,-0.197826 -0.421467,-0.302575 -0.03779,-0.04471 -0.01466,-0.117553 -0.02825,-0.173555 -0.0064,-0.10042 -0.02065,-0.201498 -0.01388,-0.301979 0.06802,0.03637 0.122674,0.09575 0.18069,0.146589 0.335529,0.319187 0.618879,0.689819 0.866488,1.080164 0.04776,0.0818 0.104497,0.159538 0.138986,0.248174 -0.01178,0.02357 -0.08041,-0.07128 -0.114126,-0.104063 z"
         id="path73" /><path
         style="opacity:1;fill:#380000;fill-opacity:1"
         d="M 10.291922,23.273833 C 9.2032487,22.717285 8.3052278,22.21446 7.5657036,21.391834 7.0687191,20.839002 6.6939176,20.244091 6.5981529,19.259889 6.4771379,18.016182 7.7431071,16.947838 8.811693,16.989544 c 0.010488,0.262521 0.02401,0.660094 0.029152,0.813406 -0.2408632,0.04526 -0.4908487,0.170318 -0.7402603,0.534461 -0.4151453,0.606115 -0.1446318,1.281785 0.3087293,1.679923 0.5002949,0.439355 1.1725349,0.85397 2.065342,1.317528 1.937167,1.005803 3.718946,1.747157 6.013696,2.593381 0.169278,0.06242 0.331491,0.172978 0.524961,0.570023 0.121513,0.249374 0.43166,0.955896 0.520305,1.184419 0.132779,0.342304 0.06524,0.582201 -0.212612,0.492318 -2.734174,-0.884469 -4.757793,-1.740048 -7.029084,-2.90117 z"
         id="path72"
         sodipodi:nodetypes="sssccssssssss" /><path
         style="opacity:1;fill:#380000;fill-opacity:1"
         d="m 27.250068,28.830799 c -0.481876,-0.04544 -0.942386,-0.213976 -1.287459,-0.61407 -0.33964,-0.393796 -0.643804,-0.822129 -0.897606,-1.27662 -0.171526,-0.307156 -0.401154,-0.632567 -0.543679,-0.970816 0.159312,-0.023 1.130415,0.18984 1.949932,0.354521 0.819516,0.164681 1.70672,0.289024 3.260327,0.585937 -0.05141,0.162807 -0.223052,0.306544 -0.346799,0.440131 -0.410973,0.44365 -0.807989,0.877859 -1.264012,1.30171 -0.236433,0.219753 -0.574157,0.192472 -0.870704,0.179205 z"
         id="path71"
         sodipodi:nodetypes="sssczcssss" /><path
         id="path70"
         style="opacity:1;fill:#380000;fill-opacity:1;stroke-width:0.866305"
         d="m 42.814311,26.53663 c 0.09271,-0.186843 0.211217,-0.322921 0.3127,-0.506337 0.153815,-0.277998 0.283522,-0.579322 0.323596,-0.898263 0.02804,-0.223173 -0.116315,-0.3917 -0.280664,-0.508622 -0.08682,-0.06177 -0.417374,-0.172857 -0.273647,-0.239552 0.349441,-0.162156 1.071147,-0.06154 1.39885,0.120088 0.471761,0.261475 0.866073,0.854686 0.825379,1.370129 -0.04476,0.566938 -0.380645,1.23441 -0.69847,1.642995 -0.633343,0.814206 -1.171498,1.331434 -2.043424,1.807966 -0.502964,0.274885 -0.521562,0.09742 -0.405807,-0.234595 0.115756,-0.33202 0.717828,-2.258081 0.841487,-2.553809 z"
         sodipodi:nodetypes="ssssssssszs" /><path
         style="opacity:1;fill:#380000;fill-opacity:1"
         d="m 34.843167,29.9475 c -0.156275,-0.02881 -0.225616,-0.151676 -0.08789,-0.279165 0.54443,-0.503965 1.02823,-1.070128 1.556161,-1.591459 0.108144,-0.106792 0.234188,-0.189727 0.392061,-0.198298 0.619678,-0.03364 2.000135,-0.238379 2.691486,-0.421401 0.460361,-0.121871 0.274479,0.278961 0.20381,0.494751 -0.179893,0.549304 -0.377889,1.098072 -0.610413,1.592644 -0.11131,0.236753 -0.222291,0.463188 -0.659027,0.513001 -1.004527,0.114573 -2.487138,0.05794 -3.486188,-0.110076 z"
         id="path69"
         sodipodi:nodetypes="ssssssssss" /><path
         style="opacity:1;fill:#380000;fill-opacity:1"
         d="M 26.41819,41.244663 C 25.121434,41.092598 24.090241,40.21593 22.986172,39.59944 20.51198,38.027121 17.652697,35.452738 14.844884,34.364835 13.200252,33.727612 11.389244,33.194048 9.6189156,33.018938 8.7992986,32.937867 7.7561568,33.340635 7.9046598,34.450981 7.1337601,33.954658 6.496848,32.905479 6.2789529,32.045898 6.0071001,30.973458 6.1768649,29.508101 7.3283801,28.77066 c 1.1515153,-0.737441 3.1856719,-0.632127 4.6941119,-0.317729 4.936599,1.028915 10.100681,4.324808 13.273081,8.090972 0.873971,1.151373 1.993341,2.219238 2.329102,3.676445 0.214727,0.805751 -0.527833,1.167298 -1.206485,1.024315 z"
         id="path68"
         sodipodi:nodetypes="ccsscszsccc" /><path
         style="opacity:1;fill:#380000;fill-opacity:1"
         d="m 32.305954,45.299437 c -0.519803,-0.0019 -2.26011,-0.133484 -0.982028,-0.699811 0.833465,-0.955106 0.305034,-2.343822 -0.04543,-3.399377 -1.09889,-2.876546 -3.310119,-5.083889 -5.326773,-7.330968 -2.712952,-3.116565 -5.144009,-6.610648 -6.387344,-10.587817 -0.578944,-1.976699 -0.785849,-4.39841 0.626875,-6.081542 0.592293,-1.002571 2.833257,-1.09694 1.988265,0.467155 -0.680494,1.352475 -0.325199,2.915765 0.161078,4.26795 0.762561,2.041032 1.519722,4.126827 2.913705,5.838472 1.769351,2.397123 4.098159,4.276182 6.291729,6.259216 1.716342,1.656784 3.188441,3.649356 3.969082,5.917497 0.414011,1.547324 0.205766,3.427814 -0.940461,4.617844 -0.604238,0.565035 -1.461599,0.760332 -2.268698,0.731381 z"
         id="path50" /></g><g
       id="g18"
       style="filter:url(#filter18)"
       inkscape:label="light body glow"
       transform="translate(0.55555549)"><path
         style="fill:#cc0000;fill-opacity:1;stroke:none;stroke-width:0.472516;stroke-dasharray:none"
         d="m 20.79726,38.674965 c 0.307998,-0.08811 0.07325,-0.216242 -0.02971,-0.301047 -0.241564,-0.19898 -0.963748,-0.736892 -1.212978,-0.929779 -0.301148,-0.233066 -1.530323,-1.173703 -2.025064,-1.525388 0.268622,0.402845 0.851994,1.124031 1.123965,1.429525 0.589774,0.662468 0.678131,0.771424 1.446578,1.497341 0.273728,-0.06953 0.425267,-0.09286 0.697205,-0.170652 z"
         id="path14"
         sodipodi:nodetypes="ssscscss" /><path
         style="opacity:1;fill:#cc0000;fill-opacity:1;stroke:none;stroke-width:0.529167;stroke-dasharray:none"
         d="m 14.057716,35.881712 c -0.657169,-0.127502 -1.148315,-0.144295 -1.625781,-0.587697 -0.09672,-0.08982 -0.127686,-0.317569 -0.02109,-0.395405 0.309614,-0.154018 0.823609,-0.12951 1.233065,-0.154103 0.48206,-0.0076 0.96419,0.04745 1.445582,0.02466 0.155595,-0.109292 -0.375478,-0.192653 -0.515926,-0.251358 -1.71239,-0.523689 -3.204085,-1.05609 -4.8680525,-1.123311 -0.4201822,-0.01698 -0.9463023,-0.109224 -1.2481472,0.183574 -0.3405795,0.330372 -0.3953005,0.94971 -0.2498761,1.401365 0.3582712,1.112708 1.684911,1.982065 2.5143538,2.44465 0.980946,0.547079 1.734103,0.856474 2.648305,1.162554 1.012461,0.338978 2.280026,0.655169 3.116917,0.738026 -0.939679,-1.173501 -2.42935,-3.442955 -2.42935,-3.442955 z"
         id="path15"
         sodipodi:nodetypes="csccccaaasacc" /><path
         style="opacity:1;fill:#cc0000;fill-opacity:1;stroke:none;stroke-width:0.537648;stroke-dasharray:none"
         d="m 31.231959,32.905468 c 0.918924,-0.783368 1.707564,-1.706955 2.56706,-2.552831 1.953864,-2.044237 3.871926,-4.265376 6.531895,-5.470189 1.253013,-0.572048 2.757207,-1.023648 4.104846,-0.492292 0.893701,0.37631 1.059249,1.490784 0.667498,2.27033 -0.140776,0.317957 -0.731978,1.425405 -0.01541,0.706521 1.150854,-1.222429 1.054288,-3.298679 -0.07445,-4.500719 -0.919152,-0.87363 -2.249488,-1.153002 -3.476782,-1.359171 -3.250408,-0.366474 -6.571795,0.929587 -8.848952,3.168329 -1.66987,1.563808 -3.281858,3.185315 -4.886014,4.811648 -0.438831,0.678601 0.624898,1.108519 0.983506,1.57953 0.766185,0.643957 1.433731,1.41656 2.307203,1.927899 l 0.139601,-0.08908 z"
         id="path16" /><path
         style="opacity:1;fill:#cc0000;fill-opacity:1;stroke:none;stroke-width:0.529167;stroke-dasharray:none;stroke-opacity:1"
         d="m 26.632282,23.323677 c 0.401642,0.01898 0.814194,-0.164406 1.173409,-0.312038 0.452903,-0.493765 0.57093,-1.207291 0.982447,-1.742203 0.651722,-1.123262 1.708209,-2.245014 1.440841,-3.649543 -0.13319,-0.742708 -0.483585,-1.493376 -1.189362,-1.847376 -0.511764,-0.416847 -1.1415,-0.71244 -1.460799,-1.327949 -0.890008,-1.244734 -2.56442,-1.337597 -3.961781,-1.331279 -1.636603,0.09134 -3.335443,0.477486 -4.679097,1.456304 -1.922779,1.473755 -2.659465,4.050167 -2.51549,6.39063 0.326463,3.199195 1.860643,6.138185 3.657558,8.752438 2.191045,3.105688 4.853448,5.83461 7.387788,8.652573 0.608281,0.7724 1.233447,1.891641 0.687102,2.854895 -0.493352,0.701149 -1.430769,0.482656 -2.103191,0.21126 -0.712064,-0.251937 -1.423237,-0.520906 -2.077725,-0.902581 -0.110007,0.337136 0.496458,0.596364 0.693991,0.881847 1.601935,1.449067 3.421614,2.939783 5.651461,3.167395 0.699375,0.02304 1.218275,-0.624804 1.149006,-1.298479 -0.04229,-0.702732 -0.165088,-1.263467 -0.389392,-1.892824 -0.513313,-1.440273 -1.407888,-2.794402 -2.31449,-3.979915 -1.449415,-1.783366 -3.074237,-3.419666 -4.465641,-5.252713 -1.996286,-2.586629 -3.826195,-5.372121 -4.895345,-8.479488 -0.556489,-1.789907 -0.870174,-3.824639 -0.08563,-5.594139 0.481273,-1.050994 1.480454,-2.080055 2.713706,-2.003467 0.587394,0.04677 0.857242,0.761623 0.625486,1.255103 -0.453679,1.31176 0.431728,2.483648 1.109736,3.515371 0.461815,0.637442 0.775678,1.373182 1.126913,2.062285 0.311829,0.326749 0.786902,0.407857 1.21998,0.401522 -0.08036,0.866282 -0.236758,1.814171 0.213978,2.608962 -0.07699,-0.474476 -0.13117,-0.989667 0.07408,-1.440277 -0.01067,0.387391 0.212869,0.756151 0.547311,0.946471 -0.33295,-0.644928 -0.425596,-1.388668 -0.316847,-2.102785 z"
         id="path18"
         sodipodi:nodetypes="sccccccccccccccccsccccccccccccss" /></g><g
       id="g14"
       inkscape:label="light body"
       transform="translate(0.55555549)"><path
         style="fill:#cc0000;fill-opacity:1;stroke:none;stroke-width:0.472516;stroke-dasharray:none"
         d="m 20.79726,38.674965 c 0.307998,-0.08811 0.07325,-0.216242 -0.02971,-0.301047 -0.241564,-0.19898 -0.963748,-0.736892 -1.212978,-0.929779 -0.301148,-0.233066 -1.530323,-1.173703 -2.025064,-1.525388 0.268622,0.402845 0.851994,1.124031 1.123965,1.429525 0.589774,0.662468 0.678131,0.771424 1.446578,1.497341 0.273728,-0.06953 0.425267,-0.09286 0.697205,-0.170652 z"
         id="path35"
         sodipodi:nodetypes="ssscscss" /><path
         style="opacity:1;fill:#cc0000;fill-opacity:1;stroke:none;stroke-width:0.529167;stroke-dasharray:none"
         d="m 14.057716,35.881712 c -0.657169,-0.127502 -1.148315,-0.144295 -1.625781,-0.587697 -0.09672,-0.08982 -0.127686,-0.317569 -0.02109,-0.395405 0.309614,-0.154018 0.823609,-0.12951 1.233065,-0.154103 0.48206,-0.0076 0.96419,0.04745 1.445582,0.02466 0.155595,-0.109292 -0.375478,-0.192653 -0.515926,-0.251358 -1.71239,-0.523689 -3.204085,-1.05609 -4.8680525,-1.123311 -0.4201822,-0.01698 -0.9463023,-0.109224 -1.2481472,0.183574 -0.3405795,0.330372 -0.3953005,0.94971 -0.2498761,1.401365 0.3582712,1.112708 1.684911,1.982065 2.5143538,2.44465 0.980946,0.547079 1.734103,0.856474 2.648305,1.162554 1.012461,0.338978 2.280026,0.655169 3.116917,0.738026 -0.939679,-1.173501 -2.42935,-3.442955 -2.42935,-3.442955 z"
         id="path34"
         sodipodi:nodetypes="csccccaaasacc" /><path
         style="opacity:1;fill:#cc0000;fill-opacity:1;stroke:none;stroke-width:0.537648;stroke-dasharray:none"
         d="m 31.231959,32.905468 c 0.918924,-0.783368 1.707564,-1.706955 2.56706,-2.552831 1.953864,-2.044237 3.871926,-4.265376 6.531895,-5.470189 1.253013,-0.572048 2.757207,-1.023648 4.104846,-0.492292 0.893701,0.37631 1.059249,1.490784 0.667498,2.27033 -0.140776,0.317957 -0.731978,1.425405 -0.01541,0.706521 1.150854,-1.222429 1.054288,-3.298679 -0.07445,-4.500719 -0.919152,-0.87363 -2.249488,-1.153002 -3.476782,-1.359171 -3.250408,-0.366474 -6.571795,0.929587 -8.848952,3.168329 -1.66987,1.563808 -3.281858,3.185315 -4.886014,4.811648 -0.438831,0.678601 0.624898,1.108519 0.983506,1.57953 0.766185,0.643957 1.433731,1.41656 2.307203,1.927899 l 0.139601,-0.08908 z"
         id="path37" /><path
         style="opacity:1;fill:#cc0000;fill-opacity:1;stroke:none;stroke-width:0.529167;stroke-dasharray:none;stroke-opacity:1"
         d="m 26.632282,23.323677 c 0.401642,0.01898 0.814194,-0.164406 1.173409,-0.312038 0.452903,-0.493765 0.57093,-1.207291 0.982447,-1.742203 0.651722,-1.123262 1.708209,-2.245014 1.440841,-3.649543 -0.13319,-0.742708 -0.483585,-1.493376 -1.189362,-1.847376 -0.511764,-0.416847 -1.1415,-0.71244 -1.460799,-1.327949 -0.890008,-1.244734 -2.56442,-1.337597 -3.961781,-1.331279 -1.636603,0.09134 -3.335443,0.477486 -4.679097,1.456304 -1.922779,1.473755 -2.659465,4.050167 -2.51549,6.39063 0.326463,3.199195 1.860643,6.138185 3.657558,8.752438 2.191045,3.105688 4.853448,5.83461 7.387788,8.652573 0.608281,0.7724 1.233447,1.891641 0.687102,2.854895 -0.493352,0.701149 -1.430769,0.482656 -2.103191,0.21126 -0.712064,-0.251937 -1.423237,-0.520906 -2.077725,-0.902581 -0.110007,0.337136 0.496458,0.596364 0.693991,0.881847 1.601935,1.449067 3.421614,2.939783 5.651461,3.167395 0.699375,0.02304 1.218275,-0.624804 1.149006,-1.298479 -0.04229,-0.702732 -0.165088,-1.263467 -0.389392,-1.892824 -0.513313,-1.440273 -1.407888,-2.794402 -2.31449,-3.979915 -1.449415,-1.783366 -3.074237,-3.419666 -4.465641,-5.252713 -1.996286,-2.586629 -3.826195,-5.372121 -4.895345,-8.479488 -0.556489,-1.789907 -0.870174,-3.824639 -0.08563,-5.594139 0.481273,-1.050994 1.480454,-2.080055 2.713706,-2.003467 0.587394,0.04677 0.857242,0.761623 0.625486,1.255103 -0.453679,1.31176 0.431728,2.483648 1.109736,3.515371 0.461815,0.637442 0.775678,1.373182 1.126913,2.062285 0.311829,0.326749 0.786902,0.407857 1.21998,0.401522 -0.08036,0.866282 -0.236758,1.814171 0.213978,2.608962 -0.07699,-0.474476 -0.13117,-0.989667 0.07408,-1.440277 -0.01067,0.387391 0.212869,0.756151 0.547311,0.946471 -0.33295,-0.644928 -0.425596,-1.388668 -0.316847,-2.102785 z"
         id="path48"
         sodipodi:nodetypes="sccccccccccccccccsccccccccccccss" /></g><g
       id="g28"
       inkscape:label="eye glow"
       transform="translate(0.55555549)"><g
         id="g20"
         style="mix-blend-mode:hard-light;fill:#ffffff;filter:url(#filter20)"><path
           style="fill:#ffffff"
           d="m 28.081703,20.423575 c 0.445679,-0.204299 0.807079,-0.604464 0.9091,-1.090475 0.119881,-0.474194 0.0062,-0.957865 -0.02663,-1.434958 0.0069,-0.308804 -0.319206,-0.160636 -0.347251,0.0526 -0.380466,0.739893 -0.686598,1.517441 -0.931907,2.311896 -0.07567,0.298919 0.225241,0.293344 0.396684,0.160934 z"
           id="path19" /><path
           style="fill:#ffffff"
           d="m 25.165018,20.494655 c 0.172719,-0.157484 -0.0052,-0.395907 -0.04487,-0.577843 -0.255569,-0.732096 -0.537812,-1.459684 -0.919052,-2.136569 -0.181991,-0.216689 -0.294826,0.118166 -0.26592,0.277612 -0.04642,0.479339 -0.132789,0.977747 0.03819,1.443585 0.158667,0.490153 0.593617,0.843373 1.066508,1.01264 0.04225,0.0086 0.08729,0.0011 0.125143,-0.01942 z"
           id="path20" /></g><g
         id="g25"
         style="mix-blend-mode:hard-light;fill:#ffffff;filter:url(#filter20)"><path
           style="fill:#ffffff"
           d="m 28.081703,20.423575 c 0.445679,-0.204299 0.807079,-0.604464 0.9091,-1.090475 0.119881,-0.474194 0.0062,-0.957865 -0.02663,-1.434958 0.0069,-0.308804 -0.319206,-0.160636 -0.347251,0.0526 -0.380466,0.739893 -0.686598,1.517441 -0.931907,2.311896 -0.07567,0.298919 0.225241,0.293344 0.396684,0.160934 z"
           id="path24" /><path
           style="fill:#ffffff"
           d="m 25.165018,20.494655 c 0.172719,-0.157484 -0.0052,-0.395907 -0.04487,-0.577843 -0.255569,-0.732096 -0.537812,-1.459684 -0.919052,-2.136569 -0.181991,-0.216689 -0.294826,0.118166 -0.26592,0.277612 -0.04642,0.479339 -0.132789,0.977747 0.03819,1.443585 0.158667,0.490153 0.593617,0.843373 1.066508,1.01264 0.04225,0.0086 0.08729,0.0011 0.125143,-0.01942 z"
           id="path25" /></g></g><g
       id="g62"
       style="fill:#ffffff"
       inkscape:label="eyes"
       transform="translate(0.55555549)"><path
         style="fill:#ffffff"
         d="m 28.081703,20.423575 c 0.445679,-0.204299 0.807079,-0.604464 0.9091,-1.090475 0.119881,-0.474194 0.0062,-0.957865 -0.02663,-1.434958 0.0069,-0.308804 -0.319206,-0.160636 -0.347251,0.0526 -0.380466,0.739893 -0.686598,1.517441 -0.931907,2.311896 -0.07567,0.298919 0.225241,0.293344 0.396684,0.160934 z"
         id="path62"
         inkscape:label="right eye" /><path
         style="fill:#ffffff"
         d="m 25.165018,20.494655 c 0.172719,-0.157484 -0.0052,-0.395907 -0.04487,-0.577843 -0.255569,-0.732096 -0.537812,-1.459684 -0.919052,-2.136569 -0.181991,-0.216689 -0.294826,0.118166 -0.26592,0.277612 -0.04642,0.479339 -0.132789,0.977747 0.03819,1.443585 0.158667,0.490153 0.593617,0.843373 1.066508,1.01264 0.04225,0.0086 0.08729,0.0011 0.125143,-0.01942 z"
         id="path61"
         inkscape:label="left eye" /></g></g></svg>
